<?xml version="1.0" standalone="no"?>
<!DOCTYPE svg PUBLIC "-//W3C//DTD SVG 20010904//EN"
 "http://www.w3.org/TR/2001/REC-SVG-20010904/DTD/svg10.dtd">
<svg version="1.0" xmlns="http://www.w3.org/2000/svg"
 width="936.000000pt" height="936.000000pt" viewBox="0 0 936.000000 936.000000"
 preserveAspectRatio="xMidYMid meet">
<metadata>
Created by potrace 1.14, written by Peter Selinger 2001-2017
</metadata>
<g transform="translate(0.000000,936.000000) scale(0.100000,-0.100000)"
fill="#000000" stroke="none">
<path d="M2365 8941 c-2 -5 -21 -12 -40 -15 -19 -4 -35 -11 -35 -16 0 -5 -7
-7 -16 -3 -11 4 -22 -1 -30 -12 -8 -10 -14 -15 -14 -9 0 5 -10 -2 -21 -16 -11
-14 -18 -20 -15 -13 4 6 1 15 -5 19 -7 4 -9 3 -6 -3 4 -6 -1 -19 -9 -29 -9
-10 -13 -12 -9 -4 4 8 -3 4 -15 -10 -12 -14 -19 -20 -16 -13 4 6 1 15 -5 19
-8 4 -9 3 -5 -4 4 -7 2 -12 -4 -12 -6 0 -8 -5 -5 -11 4 -6 -2 -13 -14 -16 -16
-4 -19 -9 -11 -18 9 -11 7 -12 -9 -8 -13 3 -21 1 -21 -6 0 -7 5 -9 13 -5 8 5
8 3 -2 -9 -7 -9 -17 -14 -23 -11 -11 7 -40 -15 -33 -27 3 -4 -5 -19 -17 -31
-13 -13 -22 -28 -20 -34 1 -7 -5 -15 -14 -18 -9 -4 -14 -13 -10 -21 3 -8 1
-15 -5 -15 -6 0 -8 -7 -5 -16 4 -10 2 -13 -6 -8 -7 5 -9 -1 -6 -18 2 -13 -2
-30 -10 -37 -12 -11 -12 -15 0 -22 12 -8 4 -13 -16 -10 -5 1 -4 -5 4 -13 9
-12 10 -16 0 -16 -7 0 -10 -7 -6 -15 3 -8 1 -15 -5 -15 -6 0 -6 -7 1 -20 6
-11 7 -20 2 -20 -5 0 -6 -18 -2 -40 4 -22 3 -40 -2 -40 -5 0 -4 -9 2 -20 6
-11 7 -20 2 -20 -5 0 -6 -18 -2 -40 4 -22 3 -40 -2 -40 -5 0 -4 -9 2 -20 8
-14 8 -20 0 -20 -6 0 -9 -4 -6 -9 3 -4 6 -128 6 -275 1 -187 4 -266 12 -266 6
0 8 -3 4 -7 -3 -4 6 -12 21 -19 22 -9 35 -9 58 1 17 6 37 10 45 8 12 -4 13 -3
1 5 -9 7 -11 16 -6 28 11 27 12 47 1 62 -5 8 -4 12 4 12 8 0 9 4 3 13 -11 14
-11 27 0 44 4 6 3 15 -3 18 -6 4 -7 12 -3 18 10 15 10 38 0 55 -5 7 -3 12 4
12 7 0 8 4 2 13 -11 14 -11 27 0 44 4 6 3 15 -3 18 -6 4 -7 12 -3 18 10 15 10
38 0 55 -5 7 -3 12 4 12 7 0 8 4 2 13 -8 10 -10 32 -3 40 6 7 6 49 -1 53 -4 2
-4 17 1 33 4 15 4 34 0 41 -5 7 -4 24 1 38 5 13 6 30 1 36 -7 10 -9 31 -2 39
7 8 5 49 -2 53 -5 3 -1 15 9 27 10 11 12 17 6 13 -8 -4 -13 -1 -13 9 0 10 5
13 12 9 7 -5 9 -2 6 7 -3 8 -1 25 5 39 5 14 9 33 8 43 -1 9 3 17 8 17 6 0 11
11 11 24 0 16 7 27 20 31 23 7 25 16 8 34 -11 11 -9 13 8 9 17 -4 20 -2 16 14
-3 14 2 21 17 25 18 5 19 8 9 21 -8 10 -9 13 -1 9 6 -4 14 -1 16 5 4 10 6 10
6 1 1 -7 6 -13 12 -13 6 0 9 7 5 15 -4 11 1 15 19 15 13 0 27 4 30 10 4 6 -1
7 -12 3 -12 -4 -15 -3 -8 5 6 5 19 12 30 14 11 2 19 10 17 17 -2 9 3 9 18 1
16 -8 20 -8 18 2 -2 7 5 12 15 11 12 0 16 4 13 12 -3 8 0 12 7 9 7 -2 34 2 60
10 29 9 47 10 47 4 0 -7 5 -6 14 1 10 9 16 9 21 1 5 -8 10 -8 20 0 7 6 16 7
19 2 6 -10 36 -9 53 1 6 4 15 3 18 -3 5 -8 12 -7 22 2 17 13 20 13 40 -3 7 -7
14 -6 18 1 5 8 11 8 21 -1 11 -9 14 -9 14 1 0 10 3 10 14 1 10 -8 16 -9 21 -1
3 6 12 7 18 3 16 -10 39 -10 54 0 6 4 14 3 18 -3 3 -6 12 -7 18 -3 19 12 36
12 43 2 4 -6 11 -6 19 1 10 8 15 8 20 0 5 -8 11 -8 21 1 11 9 14 9 14 -1 0
-10 3 -10 14 -1 8 7 17 8 20 3 6 -10 36 -9 53 1 6 4 15 3 18 -3 4 -7 11 -8 18
-1 15 12 29 12 44 0 7 -7 14 -6 18 1 5 8 11 8 21 -1 11 -9 14 -9 14 1 0 9 3
10 14 1 10 -8 16 -8 25 2 6 8 7 18 3 22 -4 5 -1 5 6 1 7 -4 10 -12 7 -17 -4
-5 -1 -9 4 -9 6 0 11 7 11 15 0 9 6 18 13 21 18 7 15 60 -3 56 -12 -2 -11 1 2
11 15 12 15 14 -4 26 -11 7 -17 8 -13 2 3 -6 1 -11 -4 -11 -6 0 -11 5 -11 11
0 5 -4 8 -9 5 -5 -4 -12 0 -14 6 -4 10 -6 10 -6 0 -1 -10 -6 -10 -21 -2 -11 6
-20 7 -20 3 0 -4 -36 -6 -80 -3 -44 3 -80 1 -80 -4 0 -5 -6 -4 -13 2 -8 7 -18
7 -27 2 -9 -5 -19 -5 -27 2 -9 7 -13 7 -13 -1 0 -9 -5 -9 -20 -1 -11 6 -20 7
-20 2 0 -5 -18 -6 -40 -2 -22 4 -40 3 -40 -2 0 -5 -9 -4 -20 2 -11 6 -20 7
-20 2 0 -4 -27 -5 -60 -2 -33 3 -60 2 -60 -2 0 -5 -9 -4 -20 2 -11 6 -20 7
-20 3 0 -4 -45 -6 -100 -3 -55 3 -100 2 -100 -2 0 -4 -11 -3 -25 2 -13 5 -27
5 -30 1z m-328 -226 c0 -8 -4 -12 -9 -9 -5 3 -6 10 -3 15 9 13 12 11 12 -6z
m78 -135 c-3 -5 -12 -10 -18 -10 -7 0 -6 4 3 10 19 12 23 12 15 0z"/>
<path d="M6220 8943 c0 -4 -25 -6 -55 -5 -35 3 -55 0 -55 -7 0 -6 -5 -11 -11
-11 -5 0 -7 6 -3 13 5 8 3 8 -9 -2 -17 -14 -13 -36 5 -25 5 4 2 -5 -7 -20 -11
-17 -13 -26 -6 -26 7 0 10 -4 7 -8 -8 -13 34 -54 49 -48 8 3 16 0 19 -7 3 -9
5 -8 5 1 1 10 6 10 21 2 15 -8 20 -8 20 2 0 9 3 9 12 0 7 -7 17 -8 29 -2 12 7
20 6 24 0 5 -8 11 -7 21 1 11 9 14 9 14 -1 0 -10 3 -10 14 -1 10 9 16 9 21 1
5 -8 10 -8 20 0 7 6 16 7 19 2 6 -10 36 -9 53 1 6 4 15 3 18 -3 5 -8 12 -7 22
2 17 13 20 13 40 -3 7 -7 14 -6 18 1 5 8 11 8 21 -1 11 -9 14 -9 14 1 0 10 3
10 14 1 10 -9 16 -9 21 -1 4 6 12 7 18 3 15 -10 38 -10 54 0 6 4 14 3 18 -3 4
-6 12 -7 18 -3 19 12 36 12 43 2 4 -6 11 -6 19 1 10 8 15 8 20 0 5 -8 11 -8
21 1 11 9 14 9 14 -1 0 -10 3 -10 14 -1 9 7 17 8 20 2 3 -5 14 -8 24 -6 9 1
23 -3 31 -9 12 -9 13 -8 7 2 -7 11 -4 12 12 3 12 -6 25 -11 29 -10 4 1 10 0
13 -1 3 -1 20 -3 37 -4 18 -1 36 -6 40 -11 5 -4 -1 -5 -12 -2 -20 7 -20 7 -1
-8 16 -12 22 -12 28 -2 6 9 8 9 8 0 0 -7 11 -15 25 -19 14 -3 34 -17 44 -30
20 -25 38 -33 25 -11 -5 8 -2 8 9 -2 9 -7 17 -20 17 -29 0 -8 17 -31 38 -50
28 -26 31 -31 12 -22 -24 12 -24 11 3 -15 16 -15 26 -33 23 -40 -3 -8 3 -19
12 -27 15 -12 16 -11 3 5 -7 9 -9 17 -3 17 13 0 19 -19 17 -52 -1 -16 2 -28 6
-28 4 0 6 -9 4 -20 -2 -11 0 -20 6 -20 5 0 9 -5 9 -11 0 -5 -5 -7 -12 -3 -7 5
-8 3 -2 -7 5 -8 9 -22 10 -31 1 -10 3 -20 4 -23 6 -12 6 -31 -1 -46 -4 -8 -4
-21 1 -28 4 -8 4 -27 0 -42 -5 -16 -5 -31 0 -34 7 -4 7 -33 0 -42 -3 -4 -3
-42 0 -48 6 -13 6 -31 -1 -46 -4 -8 -4 -21 1 -28 4 -8 4 -27 0 -42 -5 -16 -5
-31 0 -34 7 -4 7 -26 0 -45 -6 -15 -4 -36 4 -47 5 -8 4 -13 -3 -13 -7 0 -9 -5
-5 -12 10 -16 13 -48 4 -48 -8 0 -6 -37 2 -45 2 -3 2 -25 -2 -50 -4 -27 -3
-45 3 -45 5 0 4 -7 -3 -15 -9 -10 -9 -15 -1 -15 6 0 10 -3 10 -7 -4 -23 3 -33
24 -33 18 0 19 -2 7 -10 -11 -7 -5 -8 20 -3 19 3 38 11 42 17 5 7 8 6 8 -4 0
-12 2 -12 9 -2 4 8 12 13 16 13 5 -1 10 4 11 11 12 60 16 73 20 80 3 5 2 14
-3 21 -8 10 -10 32 -3 40 5 6 4 67 -1 67 -3 0 -3 20 1 45 4 25 3 48 -2 51 -4
3 -4 14 2 24 6 11 6 21 1 25 -6 3 -6 17 -1 34 4 15 4 34 0 41 -5 7 -4 24 1 38
5 13 6 30 1 36 -7 10 -9 31 -2 39 6 7 6 48 0 52 -4 2 -4 25 0 50 4 25 4 45 0
45 -4 0 -4 18 0 40 5 26 4 40 -3 40 -6 0 -8 3 -4 6 3 3 0 26 -8 50 -8 26 -9
46 -4 50 5 3 7 10 3 15 -3 5 -9 7 -14 4 -4 -3 -6 4 -3 15 3 11 0 27 -7 35 -7
9 -10 18 -6 22 3 3 -1 14 -9 23 -9 10 -15 24 -13 31 2 8 -2 13 -9 12 -7 -2
-22 12 -33 30 -21 31 -21 31 -1 8 23 -25 28 -17 7 12 -7 9 -19 17 -26 17 -10
0 -10 3 -1 14 10 12 8 13 -9 9 -16 -4 -19 -2 -13 12 4 13 3 16 -5 11 -7 -4
-12 -2 -12 4 0 6 -5 8 -12 4 -8 -5 -9 -2 -5 9 4 11 1 17 -9 17 -8 0 -12 4 -9
10 3 5 0 7 -9 4 -9 -3 -19 3 -26 18 -11 22 -10 22 4 4 9 -11 16 -15 16 -9 0 6
-6 15 -12 21 -13 10 -18 12 -39 12 -5 0 -7 4 -4 10 3 6 -1 7 -9 4 -9 -4 -18 1
-22 10 -3 9 -13 16 -21 16 -8 0 -13 6 -10 13 4 10 -3 12 -24 9 -23 -3 -29 0
-30 14 0 12 -3 14 -6 6 -4 -10 -9 -9 -20 5 -8 10 -12 12 -8 6 4 -9 1 -11 -9
-7 -9 3 -13 11 -9 17 3 5 2 8 -3 4 -5 -3 -47 -2 -92 2 -48 4 -82 3 -82 -2 0
-5 -6 -5 -13 1 -8 7 -18 7 -27 2 -9 -5 -19 -5 -27 2 -9 7 -13 7 -13 -1 0 -9
-5 -9 -20 -1 -11 6 -20 7 -20 2 0 -5 -18 -6 -40 -2 -22 4 -40 3 -40 -2 0 -5
-9 -4 -20 2 -11 6 -20 7 -20 2 0 -4 -27 -5 -60 -2 -33 3 -60 2 -60 -2 0 -5 -9
-4 -20 2 -11 6 -20 7 -20 3 0 -4 -45 -6 -100 -3 -55 3 -100 1 -100 -3 0 -4 -9
-3 -20 3 -11 6 -20 7 -20 3z"/>
<path d="M4340 8892 c0 -12 -2 -12 -17 -1 -15 12 -16 12 -10 -3 5 -15 2 -16
-18 -8 -16 6 -25 6 -25 -1 0 -6 -6 -6 -19 0 -14 8 -22 7 -30 -3 -7 -9 -31 -13
-65 -12 -42 1 -52 -2 -44 -11 7 -9 4 -11 -13 -8 -12 3 -28 0 -36 -6 -10 -9
-13 -8 -13 2 0 9 -3 10 -8 3 -8 -13 -92 -35 -104 -28 -4 3 -8 -2 -8 -11 0 -13
-4 -14 -20 -5 -16 8 -20 8 -20 -4 0 -10 -6 -13 -15 -9 -9 3 -22 -2 -29 -12
-13 -18 -14 -18 -23 0 -10 17 -11 17 -17 -3 -5 -13 -13 -19 -26 -17 -14 3 -17
-1 -13 -12 4 -11 2 -14 -5 -9 -7 4 -12 2 -12 -5 0 -9 -3 -9 -14 0 -11 9 -15 8
-20 -5 -4 -9 -13 -14 -21 -10 -8 3 -15 0 -15 -7 0 -8 -4 -6 -10 3 -8 12 -10
10 -10 -9 0 -19 -3 -21 -14 -12 -12 10 -20 5 -41 -26 -15 -21 -25 -30 -21 -20
5 16 3 16 -24 2 -16 -8 -32 -20 -36 -26 -5 -8 -3 -9 6 -4 9 5 11 4 6 -4 -6 -9
-11 -9 -22 0 -12 10 -15 10 -12 -2 2 -8 -3 -13 -9 -12 -12 3 -17 -10 -14 -30
1 -4 -8 -3 -20 4 -17 9 -20 8 -14 -2 6 -9 2 -11 -13 -7 -12 4 -20 2 -17 -2 3
-5 -3 -14 -14 -19 -10 -6 -22 -18 -25 -28 -6 -14 -2 -13 14 5 11 12 24 22 27
22 4 0 -4 -11 -17 -25 -18 -19 -26 -22 -37 -13 -8 6 -13 7 -12 2 1 -5 1 -17 0
-28 -1 -15 -4 -16 -16 -6 -12 10 -14 8 -10 -9 2 -14 -1 -21 -11 -21 -8 0 -12
-4 -9 -10 3 -5 1 -10 -5 -10 -6 0 -8 -6 -4 -12 5 -10 4 -10 -6 -1 -11 10 -23
3 -62 -37 -26 -27 -48 -53 -48 -57 0 -4 5 -1 11 7 9 13 10 13 6 0 -2 -8 -11
-14 -20 -12 -11 2 -14 -3 -10 -17 2 -10 0 -22 -6 -25 -7 -5 -8 -1 -4 10 4 12
3 15 -5 10 -7 -4 -12 -16 -12 -27 0 -13 -4 -18 -12 -13 -8 5 -9 2 -5 -9 3 -9
1 -19 -5 -23 -6 -4 -8 -3 -4 4 3 6 3 13 -2 16 -4 2 -9 -5 -9 -17 -1 -11 -9
-24 -17 -29 -9 -5 -13 -15 -9 -25 5 -12 3 -14 -7 -8 -10 6 -12 4 -7 -8 4 -11
1 -17 -8 -17 -7 0 -17 -5 -21 -12 -5 -7 -2 -9 7 -4 8 4 5 0 -6 -9 -11 -9 -19
-18 -17 -20 6 -11 -11 -54 -19 -49 -5 3 -9 -2 -9 -11 0 -9 -9 -25 -20 -37 -11
-12 -20 -30 -20 -41 0 -22 -24 -49 -35 -39 -5 4 -5 2 -1 -5 4 -7 14 -10 24 -7
9 2 7 -1 -6 -7 -14 -8 -21 -18 -17 -27 4 -10 0 -12 -11 -8 -14 5 -15 4 -5 -8
10 -12 8 -17 -9 -26 -16 -9 -19 -14 -10 -25 8 -9 8 -19 1 -32 -16 -31 -24 -57
-22 -75 1 -10 -3 -18 -9 -18 -6 0 -8 5 -4 12 4 7 3 8 -5 4 -7 -5 -8 -13 -2
-24 7 -12 5 -23 -7 -36 -9 -11 -11 -16 -4 -12 6 4 12 2 12 -3 0 -6 -6 -11 -12
-11 -9 0 -8 -4 2 -10 13 -8 13 -10 -2 -10 -15 0 -16 -4 -8 -26 6 -14 6 -23 2
-20 -4 2 -12 -11 -18 -30 -8 -24 -8 -34 0 -34 6 0 4 -6 -4 -13 -13 -11 -17
-26 -23 -104 -1 -13 -8 -23 -15 -23 -9 0 -10 -5 -3 -18 6 -11 6 -24 0 -34 -6
-11 -5 -19 2 -23 7 -5 4 -14 -8 -28 -10 -11 -12 -17 -5 -13 6 4 12 2 12 -3 0
-6 -5 -11 -11 -11 -6 0 -9 -9 -6 -20 3 -11 1 -20 -3 -20 -5 0 -5 -13 0 -30 5
-16 5 -30 1 -30 -5 0 -5 -18 -1 -40 4 -22 4 -40 -1 -40 -5 0 -6 -6 -3 -14 3
-8 1 -24 -6 -35 -8 -16 -8 -21 2 -21 10 0 10 -3 -1 -9 -16 -10 -20 -55 -9 -88
4 -14 3 -23 -3 -23 -6 0 -6 -7 1 -19 7 -14 7 -22 0 -26 -8 -5 -8 -11 0 -20 8
-10 8 -15 0 -20 -8 -5 -8 -10 0 -20 8 -10 8 -15 0 -20 -8 -5 -8 -10 0 -20 6
-7 7 -16 2 -19 -10 -6 -9 -36 1 -53 4 -6 1 -14 -5 -16 -10 -4 -10 -6 0 -6 7
-1 10 -5 7 -11 -3 -5 -1 -10 4 -10 6 0 11 -5 11 -11 0 -5 -5 -7 -11 -3 -6 3
-4 -4 5 -17 10 -16 12 -29 6 -39 -5 -9 -5 -19 2 -27 7 -9 7 -13 0 -13 -6 0 -9
-7 -6 -14 4 -11 -1 -14 -20 -10 -14 2 -26 0 -26 -6 0 -5 -4 -10 -10 -10 -5 0
-7 8 -4 18 5 13 4 14 -4 3 -6 -8 -8 -19 -6 -26 3 -6 -3 -18 -13 -26 -16 -13
-17 -12 -4 4 9 11 10 17 2 17 -6 0 -16 -12 -22 -27 -6 -15 -15 -31 -21 -34
-12 -8 -19 -29 -22 -66 0 -13 -7 -23 -15 -23 -10 0 -11 -3 -3 -13 8 -10 6 -17
-8 -27 -14 -10 -16 -17 -8 -27 8 -10 7 -13 -4 -13 -12 0 -14 -8 -8 -40 4 -22
3 -40 -2 -40 -5 0 -4 -9 2 -20 6 -11 7 -20 2 -20 -5 0 -6 -18 -2 -40 4 -22 3
-40 -2 -40 -5 0 -4 -9 2 -20 7 -13 7 -20 1 -20 -6 0 -8 -6 -6 -12 2 -7 7 -33
9 -56 3 -24 10 -50 17 -58 7 -9 8 -14 1 -14 -7 0 -6 -10 3 -27 8 -15 12 -30 9
-35 -3 -4 0 -8 6 -8 6 0 8 -4 5 -10 -3 -5 0 -10 7 -10 9 0 9 -3 -2 -10 -12 -8
-12 -10 -1 -10 8 0 12 -3 8 -6 -3 -4 1 -13 9 -21 8 -8 11 -19 8 -25 -4 -7 -2
-8 4 -4 8 4 12 0 12 -11 1 -23 25 -55 35 -45 5 4 5 -1 2 -11 -4 -10 -3 -16 2
-13 11 7 33 -18 25 -27 -4 -3 7 -14 23 -24 17 -10 31 -21 32 -25 0 -5 3 -7 6
-5 2 1 11 -7 20 -18 9 -11 14 -13 10 -5 -4 8 1 6 9 -4 9 -12 16 -14 16 -7 0 9
5 8 16 -3 8 -9 20 -13 26 -10 6 4 8 3 5 -3 -4 -5 4 -16 17 -23 16 -8 22 -18
19 -31 -3 -10 0 -19 6 -19 7 0 8 -8 1 -24 -5 -13 -7 -26 -4 -28 2 -3 5 -26 7
-52 2 -27 10 -52 18 -57 10 -6 10 -9 2 -9 -7 0 -10 -7 -7 -15 4 -8 10 -13 14
-10 5 3 6 -5 2 -17 -4 -16 -2 -19 8 -13 9 6 11 4 5 -6 -12 -18 -14 -49 -3 -43
4 3 9 -1 10 -8 0 -7 2 -17 2 -23 1 -5 5 -16 9 -22 5 -7 6 -17 3 -22 -3 -5 1
-14 9 -21 8 -7 15 -19 15 -27 0 -8 4 -11 10 -8 7 4 7 -3 0 -19 -6 -18 -6 -26
1 -26 6 0 9 -7 5 -15 -3 -8 -1 -15 5 -15 6 0 7 -4 4 -10 -3 -5 -1 -10 5 -10 7
0 10 -7 7 -15 -3 -7 3 -24 14 -37 11 -13 17 -17 13 -9 -5 9 -3 12 4 7 9 -5 9
-13 2 -27 -6 -10 -7 -19 -3 -19 4 0 13 -11 20 -25 8 -19 8 -24 0 -19 -7 3 -3
-2 7 -10 15 -12 16 -16 5 -16 -8 0 -10 -3 -4 -8 6 -4 22 -26 38 -49 21 -34 23
-41 9 -37 -9 3 -6 -1 7 -9 15 -9 19 -16 11 -19 -9 -3 -7 -8 6 -18 14 -12 16
-12 9 -1 -5 9 -4 12 2 8 6 -4 8 -19 5 -33 -3 -17 -1 -25 5 -21 6 4 19 -3 29
-14 10 -11 14 -20 9 -19 -25 5 -28 -1 -6 -13 13 -6 25 -21 27 -31 1 -10 8 -22
15 -26 8 -6 6 -9 -7 -13 -16 -4 -16 -5 4 -6 12 -1 22 -7 22 -16 0 -8 5 -15 10
-15 6 0 10 -7 10 -15 0 -8 5 -15 11 -15 5 0 7 -4 4 -10 -3 -6 1 -7 9 -4 11 4
16 0 16 -11 0 -10 8 -24 18 -32 9 -8 11 -12 5 -8 -9 4 -11 1 -7 -9 3 -9 10
-14 14 -11 5 3 12 -4 15 -16 6 -17 9 -19 16 -8 6 10 10 5 15 -18 4 -19 11 -30
17 -26 6 4 8 0 4 -9 -4 -12 0 -15 16 -11 22 5 22 5 2 -11 -11 -10 -15 -15 -9
-12 5 3 23 -3 38 -13 20 -14 24 -20 14 -25 -7 -3 -2 -4 12 -2 24 5 25 5 5 -11
-17 -13 -17 -15 -2 -10 13 5 20 0 27 -17 5 -13 18 -31 30 -39 20 -14 21 -16 3
-20 -15 -4 -14 -5 5 -6 12 0 22 -5 22 -11 0 -5 5 -10 11 -10 5 0 7 5 3 12 -4
7 -3 8 4 4 6 -4 8 -14 5 -23 -4 -11 -3 -14 5 -9 7 4 15 1 18 -8 3 -9 14 -16
23 -16 9 -1 30 -19 46 -40 17 -21 37 -39 45 -39 10 0 7 6 -9 18 -18 14 -21 20
-11 26 7 5 11 4 8 -1 -2 -5 6 -19 19 -31 13 -12 23 -17 23 -11 0 7 7 3 15 -8
15 -19 15 -19 9 1 -4 15 -3 16 4 6 5 -7 7 -23 4 -35 -3 -11 -1 -18 3 -14 14
13 33 -35 22 -56 -6 -13 -6 -16 2 -12 8 5 8 0 2 -16 -4 -13 -6 -29 -4 -35 3
-7 1 -13 -4 -13 -5 0 -9 -20 -9 -45 1 -25 -2 -45 -6 -45 -4 0 -5 -11 -2 -25 3
-17 -1 -27 -11 -31 -12 -5 -13 -9 -4 -20 9 -11 8 -14 -1 -14 -7 0 -10 -7 -6
-15 3 -8 0 -15 -5 -15 -6 0 -9 -9 -6 -20 3 -11 1 -20 -5 -20 -5 0 -6 -5 -3
-11 4 -6 -1 -17 -11 -25 -11 -9 -13 -13 -4 -9 8 4 6 -1 -4 -9 -11 -9 -17 -16
-13 -16 3 0 0 -15 -8 -34 -8 -18 -11 -37 -7 -41 4 -4 -4 -2 -18 5 -20 10 -23
10 -13 0 9 -10 9 -19 -3 -41 -8 -16 -19 -29 -25 -29 -8 0 -7 -5 1 -15 11 -13
10 -14 -2 -10 -9 4 -18 0 -21 -9 -4 -9 -13 -13 -22 -10 -8 4 -23 0 -32 -7 -9
-8 -14 -9 -10 -3 3 6 0 11 -8 11 -8 0 -14 -3 -13 -6 0 -3 0 -13 -1 -21 -1 -13
-2 -13 -11 0 -8 13 -10 12 -11 -5 -1 -11 -1 -23 -1 -26 1 -3 -6 -6 -13 -6 -12
0 -12 3 -2 16 11 14 10 14 -6 2 -10 -8 -16 -20 -13 -27 3 -7 1 -16 -4 -19 -4
-3 -11 1 -13 7 -3 8 -6 6 -6 -4 -1 -11 -6 -15 -16 -12 -10 4 -15 0 -15 -11 0
-9 -4 -13 -10 -10 -5 3 -10 -1 -10 -11 0 -14 -2 -15 -17 -3 -15 13 -15 12 -4
-9 12 -23 12 -23 -11 -11 -21 11 -22 11 -9 -5 12 -14 12 -16 -3 -10 -9 4 -16
3 -14 -2 2 -5 0 -9 -4 -9 -4 0 -13 -9 -21 -19 -8 -10 -19 -16 -25 -12 -8 5
-10 1 -5 -10 4 -12 3 -15 -5 -10 -7 4 -12 2 -12 -3 0 -6 -6 -10 -12 -8 -7 1
-12 -6 -10 -15 2 -12 -4 -18 -15 -19 -10 0 -13 -3 -6 -5 7 -3 9 -12 6 -20 -3
-7 -10 -11 -17 -7 -7 4 -7 1 1 -8 10 -13 10 -16 -2 -17 -8 -1 -22 -3 -30 -4
-11 -1 -12 -5 -4 -14 8 -10 5 -12 -16 -8 -17 3 -24 1 -20 -6 3 -6 -3 -10 -14
-10 -12 0 -21 -6 -21 -14 0 -9 -8 -12 -25 -8 -17 3 -27 -1 -31 -12 -3 -9 -10
-13 -15 -10 -6 3 -16 0 -24 -6 -8 -6 -19 -9 -25 -5 -5 3 -10 -2 -10 -12 0 -15
-2 -16 -10 -3 -9 13 -10 13 -10 0 0 -9 -10 -16 -26 -17 -15 0 -30 -7 -34 -13
-5 -7 -15 -10 -24 -7 -8 3 -18 2 -22 -4 -4 -6 -11 -6 -20 2 -11 9 -14 8 -14
-4 0 -9 -5 -19 -12 -23 -7 -5 -8 -3 -3 6 6 9 2 10 -16 5 -13 -4 -26 -10 -29
-14 -5 -6 -19 -8 -73 -13 -16 -2 -25 -8 -23 -15 4 -9 -2 -10 -17 -4 -31 10
-46 8 -57 -9 -6 -9 -10 -10 -10 -3 0 7 -7 10 -15 7 -8 -4 -12 -10 -9 -15 3 -5
-6 -5 -20 1 -16 6 -26 6 -26 0 0 -5 -7 -7 -15 -4 -9 4 -15 1 -15 -7 0 -10 -3
-10 -11 -2 -9 9 -18 7 -37 -5 -15 -9 -23 -11 -19 -5 6 9 3 11 -7 7 -9 -3 -16
-11 -16 -18 0 -7 -3 -6 -9 2 -6 11 -11 10 -25 -3 -9 -9 -16 -13 -16 -8 0 5 -9
9 -19 9 -11 0 -17 -4 -15 -8 3 -4 -4 -8 -16 -8 -12 0 -19 -4 -16 -9 4 -5 -3
-7 -14 -4 -12 3 -20 0 -20 -7 0 -9 -4 -9 -17 1 -11 10 -14 10 -9 2 5 -9 -1
-13 -18 -14 -14 -1 -32 -2 -38 -3 -7 -1 -17 -7 -21 -14 -7 -10 -12 -10 -23 -1
-11 9 -14 8 -14 -4 0 -8 -8 -14 -17 -13 -10 0 -17 -4 -16 -10 1 -6 -4 -11 -12
-11 -8 0 -11 7 -7 16 3 9 -6 3 -21 -13 -16 -17 -27 -23 -27 -15 0 9 -3 10 -8
3 -9 -14 -56 -39 -48 -26 3 6 2 14 -4 17 -6 4 -10 3 -9 -2 4 -21 -2 -43 -12
-43 -5 0 -8 4 -5 9 4 5 -3 7 -15 4 -11 -3 -18 -11 -15 -18 3 -8 -2 -12 -12
-10 -9 1 -23 -7 -30 -19 -8 -13 -11 -15 -8 -4 3 12 1 15 -10 11 -7 -3 -14 -9
-14 -15 0 -5 -4 -6 -10 -3 -5 3 -10 0 -10 -7 0 -9 -3 -9 -10 2 -8 13 -10 13
-10 -1 0 -9 -10 -19 -22 -23 -13 -3 -31 -18 -41 -33 -10 -15 -16 -19 -13 -9 5
15 4 17 -7 8 -8 -7 -18 -8 -23 -4 -4 4 -2 -1 5 -11 12 -15 12 -17 -2 -11 -10
3 -20 -2 -27 -16 -8 -15 -18 -20 -31 -17 -17 5 -18 3 -7 -11 10 -12 10 -14 1
-8 -7 4 -13 2 -13 -3 0 -6 -5 -11 -10 -11 -6 0 -21 -10 -33 -23 -12 -13 -16
-15 -9 -6 9 12 10 19 2 24 -6 4 -9 1 -8 -7 2 -7 -2 -12 -9 -11 -6 1 -10 -8 -8
-22 1 -14 -2 -25 -6 -25 -5 0 -9 6 -10 13 0 6 -5 1 -11 -13 -6 -14 -10 -29 -9
-33 1 -5 -3 -6 -9 -2 -8 5 -7 12 2 23 12 15 11 16 -4 3 -10 -7 -15 -18 -11
-24 4 -7 0 -8 -12 -3 -15 5 -16 4 -5 -9 8 -10 9 -15 1 -15 -6 0 -11 -7 -11
-15 0 -8 -6 -15 -13 -15 -14 0 -52 -36 -52 -49 0 -3 -4 -5 -8 -3 -5 1 -5 -7
-2 -19 5 -16 4 -19 -6 -14 -9 6 -11 3 -6 -9 4 -10 3 -15 -3 -11 -6 3 -10 1
-10 -5 0 -6 -5 -8 -12 -4 -8 5 -8 2 1 -10 12 -15 12 -17 0 -14 -8 2 -14 -4
-14 -12 0 -8 -5 -18 -12 -23 -6 -4 -10 -16 -8 -27 3 -13 -1 -17 -11 -13 -12 5
-19 -8 -15 -30 1 -4 -6 -21 -14 -37 -18 -34 -19 -44 -4 -35 6 4 5 -2 -2 -13
-7 -12 -18 -18 -24 -14 -5 3 -4 -2 4 -11 10 -13 10 -17 1 -17 -7 0 -10 -8 -7
-20 3 -11 1 -18 -4 -14 -5 3 -9 -4 -9 -16 0 -13 -4 -19 -11 -14 -8 4 -8 1 -1
-13 6 -11 7 -25 2 -33 -5 -9 -5 -19 2 -27 8 -10 6 -13 -5 -13 -9 0 -19 -5 -23
-12 -4 -6 -3 -8 4 -4 6 3 13 2 17 -4 3 -5 2 -10 -3 -10 -14 0 -21 -35 -10 -54
6 -11 5 -16 -3 -16 -8 0 -9 -4 0 -13 8 -10 7 -17 -1 -25 -7 -7 -8 -12 -2 -12
6 0 11 -6 11 -12 1 -22 8 -43 17 -49 4 -4 3 -17 -4 -29 -9 -18 -9 -24 0 -30 7
-5 10 -15 7 -23 -3 -9 2 -21 11 -29 13 -11 14 -11 7 1 -5 9 -4 12 2 8 6 -4 8
-19 5 -33 -3 -16 -1 -25 5 -21 5 3 15 2 23 -4 11 -6 11 -9 2 -9 -10 0 -10 -3
0 -14 7 -8 17 -12 21 -9 5 3 4 -4 -2 -15 -9 -18 -8 -19 11 -14 14 3 19 1 14
-6 -4 -7 -2 -12 3 -12 6 0 11 -5 11 -11 0 -5 -6 -7 -12 -3 -9 5 -9 2 1 -9 14
-18 36 -24 26 -7 -3 5 -1 10 4 10 10 0 15 -13 13 -32 -1 -3 5 -9 14 -12 10 -4
13 -2 8 7 -5 8 -2 8 9 -2 9 -7 15 -17 12 -21 -3 -4 2 -11 11 -14 10 -4 13 -2
9 7 -4 6 3 1 14 -13 11 -14 21 -29 21 -34 0 -5 6 -3 14 3 10 9 17 7 27 -6 13
-17 13 -17 -6 -3 -19 14 -19 14 -6 -2 7 -10 17 -15 23 -12 5 3 21 -6 35 -20
14 -14 30 -26 35 -26 6 0 0 9 -13 21 l-24 20 28 -17 c15 -9 27 -23 27 -31 0
-8 5 -11 10 -8 6 3 10 0 10 -7 0 -9 3 -9 10 2 7 12 10 12 10 1 0 -7 6 -11 15
-7 8 3 15 1 15 -3 0 -5 7 -12 16 -15 8 -3 12 -2 9 3 -3 5 -1 13 5 16 6 4 10 3
9 -2 -1 -4 1 -16 6 -26 6 -14 10 -15 21 -6 12 10 13 8 8 -6 -5 -13 -4 -16 4
-11 7 4 12 2 12 -6 0 -10 3 -9 10 2 8 12 10 12 16 -3 5 -15 9 -15 22 -5 11 9
13 9 9 1 -4 -6 -3 -14 3 -18 5 -3 10 0 10 7 1 10 4 9 13 -2 7 -9 20 -14 31
-12 11 2 16 0 12 -7 -4 -6 1 -8 13 -6 11 2 22 -3 25 -11 3 -7 11 -11 19 -8 7
2 35 -4 60 -15 26 -11 47 -16 47 -10 0 5 14 3 30 -6 17 -9 30 -13 30 -9 0 4 6
1 13 -5 8 -6 17 -8 20 -4 4 3 17 -2 29 -13 22 -18 22 -18 8 0 -13 17 -10 16
30 -4 40 -20 43 -21 30 -4 -14 19 -14 19 7 1 12 -11 26 -16 32 -13 5 4 12 2
16 -3 3 -5 14 -8 25 -6 11 2 23 -1 26 -7 5 -7 2 -8 -6 -3 -9 5 -11 4 -6 -4 6
-9 11 -9 21 -1 9 8 15 8 20 0 3 -6 11 -8 16 -4 5 3 17 0 26 -8 12 -9 15 -9 9
-1 -5 9 -2 11 8 7 9 -3 16 -10 16 -15 0 -6 8 -6 18 0 13 7 23 6 30 -1 9 -9 12
-8 12 3 0 12 2 12 10 -1 5 -8 10 -11 10 -6 0 6 7 1 16 -10 8 -10 13 -14 10 -8
-4 8 3 11 19 10 14 0 25 -5 25 -9 0 -5 4 -6 8 -3 5 3 34 -1 65 -8 31 -7 57
-10 57 -6 0 4 7 7 15 7 8 0 15 -5 15 -10 0 -5 9 -7 20 -4 11 3 20 1 20 -3 0
-5 11 -7 25 -5 14 1 28 -1 30 -6 5 -7 51 -3 67 7 4 3 11 -2 14 -10 3 -9 10
-14 14 -11 5 3 12 1 15 -5 5 -8 11 -7 21 1 8 6 14 7 14 2 0 -11 42 -9 59 2 6
3 11 2 11 -2 0 -5 8 -9 18 -10 39 -3 62 -8 62 -13 0 -7 59 -5 67 3 3 4 12 2
19 -4 8 -7 14 -7 19 1 5 8 15 4 30 -10 19 -18 27 -20 44 -11 13 8 21 8 21 2 0
-6 7 -8 17 -4 21 8 77 8 91 0 6 -4 14 -3 17 3 5 8 11 7 21 -1 8 -6 14 -8 14
-3 0 5 5 1 11 -8 7 -14 15 -15 34 -8 15 6 27 6 30 0 3 -5 15 -6 29 0 12 4 29
5 36 0 7 -4 26 -4 41 0 16 5 31 5 33 1 4 -7 46 -7 54 -1 7 7 29 5 40 -3 8 -6
12 -5 12 4 0 9 3 10 8 4 10 -14 92 -35 92 -23 0 5 9 4 20 -2 11 -6 20 -7 20
-2 0 5 18 6 40 2 22 -4 40 -3 40 2 0 5 9 4 20 -2 11 -6 20 -7 20 -2 0 5 18 6
40 2 22 -4 40 -3 40 2 0 5 9 4 20 -2 11 -6 20 -7 20 -2 0 5 18 6 40 2 22 -4
40 -3 40 2 0 5 9 4 20 -2 11 -6 20 -7 20 -2 0 5 18 6 40 2 22 -4 40 -3 40 2 0
5 9 4 20 -2 11 -6 20 -7 20 -2 0 5 18 6 40 2 22 -4 40 -3 40 2 0 5 9 4 20 -2
11 -6 20 -7 20 -2 0 5 18 6 40 2 22 -4 40 -3 40 2 0 5 9 4 20 -2 11 -6 20 -7
20 -2 0 5 18 6 40 2 22 -4 40 -3 40 2 0 5 9 4 20 -2 11 -6 20 -7 20 -2 0 5 18
6 40 2 22 -4 40 -3 40 2 0 5 9 4 20 -2 11 -6 20 -7 20 -2 0 5 18 6 40 2 22 -4
40 -3 40 2 0 5 9 4 20 -2 11 -6 20 -7 20 -2 0 4 27 5 60 2 33 -3 60 -2 60 2 0
5 9 4 20 -2 11 -6 20 -7 20 -2 0 5 18 6 40 2 22 -4 40 -3 40 2 0 5 9 4 20 -2
11 -6 20 -7 20 -2 0 5 18 6 40 2 26 -5 40 -4 40 3 0 8 4 7 11 0 12 -12 42 -6
34 7 -3 5 5 6 17 2 16 -4 19 -2 13 9 -6 11 -5 11 5 2 8 -7 22 -8 41 -3 16 5
31 5 33 1 4 -7 46 -7 54 -1 7 7 28 5 38 -2 6 -5 22 -4 36 1 14 5 31 5 40 0 10
-6 19 -6 22 0 3 5 15 7 26 4 12 -3 20 0 20 7 0 9 4 9 17 -1 14 -12 16 -12 9 0
-7 11 -1 13 28 9 20 -2 36 0 36 5 0 5 6 4 13 -2 8 -6 16 -8 20 -5 10 10 97 9
101 -1 3 -5 5 -4 5 3 1 6 9 12 19 12 10 0 23 5 30 12 9 9 12 9 12 0 0 -8 7 -9
23 -3 14 5 30 5 40 0 11 -7 17 -6 17 1 0 7 6 8 16 2 18 -10 73 5 86 23 5 7 8
7 8 0 0 -19 138 -3 151 17 6 8 9 9 9 2 0 -8 11 -9 35 -4 23 5 35 4 35 -3 0 -5
8 -3 18 5 9 8 39 16 66 17 28 1 53 4 57 7 4 2 10 -2 12 -8 4 -10 6 -10 6 0 1
6 9 12 19 12 10 0 23 5 30 12 9 9 12 9 12 0 0 -9 5 -10 19 -2 14 7 20 7 23 -1
3 -8 8 -7 18 2 8 8 33 16 55 17 22 2 49 11 60 20 18 16 19 16 7 0 -10 -12 -10
-18 -1 -24 7 -4 9 -3 6 3 -4 6 5 15 18 21 14 7 25 8 25 3 0 -9 64 10 76 22 4
3 15 2 25 -4 15 -8 19 -6 19 6 0 9 4 13 10 10 5 -3 19 -1 31 6 15 7 19 8 15 0
-5 -7 -1 -9 8 -5 9 3 16 11 16 16 0 6 8 4 17 -3 11 -10 14 -10 9 -2 -5 9 0 13
18 13 14 0 28 5 31 10 5 8 11 8 20 0 9 -7 16 -6 25 5 11 13 15 13 21 3 7 -10
9 -10 9 1 0 8 6 11 16 7 10 -4 13 -2 8 6 -5 8 -2 9 10 5 10 -4 19 -1 23 9 5
13 7 13 14 2 7 -10 9 -11 9 0 0 7 4 11 9 8 15 -9 42 5 34 18 -4 6 1 5 10 -3
13 -10 17 -10 17 -1 0 7 7 10 16 6 8 -3 13 -2 10 3 -3 5 3 11 13 14 15 4 18 1
13 -12 -3 -9 6 -3 21 13 16 17 27 23 27 15 0 -9 3 -10 8 -3 9 14 56 39 48 26
-3 -6 -2 -14 4 -17 6 -4 10 -3 9 2 -4 21 2 43 12 43 5 0 7 -5 4 -10 -9 -15 2
-12 19 6 12 12 16 12 16 2 1 -8 6 -6 15 6 10 13 15 15 15 6 0 -9 5 -7 15 6 8
10 15 15 15 11 0 -16 40 14 40 31 0 10 3 13 8 7 11 -16 37 -12 37 5 0 8 10 16
23 18 12 2 22 8 22 13 0 6 -6 7 -12 3 -8 -4 -9 -3 -5 2 5 5 16 9 25 9 9 0 16
6 14 14 -3 12 0 12 13 1 13 -11 15 -10 9 4 -4 11 -2 16 7 14 9 -2 13 5 12 17
-1 20 -1 20 13 1 14 -19 14 -19 14 3 0 18 4 21 21 16 15 -5 19 -4 15 4 -7 10
6 16 27 12 5 -1 6 3 2 9 -3 6 -11 7 -17 4 -7 -5 -8 -2 -4 5 5 7 14 10 22 7 8
-3 13 -2 13 2 -3 20 2 32 15 32 8 0 13 8 12 18 0 9 4 16 11 15 8 -2 10 4 6 14
-5 12 -3 14 7 8 10 -6 12 -4 7 8 -3 10 -2 17 3 17 5 0 6 7 3 17 -4 11 -3 14 5
9 7 -4 12 -4 13 1 0 4 2 15 4 23 1 8 4 26 6 40 2 14 9 28 14 32 6 5 4 8 -4 8
-11 0 -9 4 5 15 13 10 14 14 5 15 -9 0 -10 4 -5 13 11 15 11 38 1 55 -5 7 -3
12 3 12 7 0 8 6 0 19 -7 14 -6 21 3 24 9 4 9 6 -1 6 -7 1 -10 6 -7 11 3 6 1
10 -4 10 -6 0 -11 5 -11 11 0 5 6 7 13 3 9 -6 9 -5 0 7 -9 11 -16 47 -22 122
-1 5 -5 5 -11 2 -7 -4 -7 3 0 19 6 18 6 26 -1 26 -6 0 -9 6 -6 13 2 6 -5 18
-17 25 -14 9 -15 12 -4 8 15 -5 16 -3 5 14 -6 11 -16 20 -21 20 -4 0 -2 8 5
17 10 11 10 14 2 9 -9 -5 -13 0 -13 13 0 12 -9 30 -21 42 -12 12 -19 29 -16
40 3 10 0 22 -5 26 -7 4 -8 1 -3 -8 8 -12 6 -12 -9 0 -12 10 -14 16 -5 22 8 4
2 12 -17 23 -24 13 -26 15 -9 16 16 1 14 4 -10 15 -24 11 -26 14 -10 15 15 1
16 3 5 7 -19 7 -80 72 -80 85 0 5 -4 6 -10 3 -6 -3 -10 3 -10 13 0 11 -8 26
-17 33 -16 13 -17 12 -4 -4 12 -15 12 -17 -3 -11 -15 6 -20 18 -17 37 1 5 -3
6 -9 2 -9 -6 -14 7 -11 30 1 6 -6 1 -15 -10 -16 -20 -16 -20 -9 2 5 18 3 22
-10 17 -11 -5 -18 0 -22 14 -3 13 -11 19 -23 17 -14 -3 -17 1 -13 13 6 15 4
15 -9 4 -14 -11 -16 -10 -12 10 2 13 2 18 -2 11 -4 -9 -13 -4 -30 14 -13 14
-24 20 -24 13 0 -7 -11 -1 -24 15 -17 20 -29 26 -42 21 -10 -4 -15 -4 -12 0
13 12 -16 33 -30 22 -9 -8 -11 -7 -6 7 5 13 4 16 -4 11 -7 -4 -12 -1 -12 7 0
10 -7 13 -20 10 -12 -3 -20 0 -20 6 0 7 -4 9 -10 6 -5 -3 -10 -2 -10 3 0 5 -9
12 -20 15 -11 3 -18 1 -15 -3 3 -5 1 -12 -5 -15 -6 -4 -10 -3 -9 2 1 4 -1 16
-6 26 -6 14 -10 15 -21 6 -12 -10 -13 -8 -8 7 4 10 4 16 -1 12 -4 -4 -14 -3
-22 3 -10 9 -13 8 -13 0 0 -7 -5 -9 -10 -6 -6 4 -8 10 -6 14 3 4 -7 8 -21 9
-30 2 -45 11 -38 21 2 5 -7 6 -22 3 -20 -4 -24 -2 -18 9 5 8 5 11 0 7 -4 -4
-15 -2 -23 5 -13 10 -14 9 -7 -3 7 -12 6 -13 -7 -3 -8 7 -18 10 -21 6 -4 -3
-7 -1 -7 5 0 7 -3 11 -7 11 -23 -4 -43 2 -38 11 4 7 -3 7 -19 0 -18 -7 -26 -6
-26 1 0 6 -9 9 -20 6 -11 -3 -18 -1 -14 4 3 5 -7 10 -23 11 -15 0 -34 2 -41 2
-7 1 -17 7 -21 15 -6 10 -10 10 -16 2 -4 -7 -12 -8 -18 -4 -7 5 -25 10 -42 12
-16 2 -31 7 -33 11 -2 5 -14 5 -28 0 -16 -7 -24 -6 -24 1 0 6 -7 9 -15 5 -8
-3 -15 -1 -15 5 0 7 -12 9 -30 7 -16 -3 -30 -1 -30 4 0 4 -13 8 -29 8 -17 0
-33 5 -36 10 -4 6 -11 8 -16 4 -5 -3 -17 0 -26 8 -12 9 -15 9 -9 1 5 -9 2 -11
-8 -7 -9 3 -16 10 -16 14 0 4 -7 11 -16 14 -10 4 -13 2 -8 -7 6 -9 4 -9 -8 1
-8 7 -23 10 -32 6 -9 -4 -16 -1 -16 6 0 7 -8 10 -20 7 -14 -4 -20 0 -21 11 0
11 -2 12 -6 5 -3 -10 -10 -10 -24 -2 -11 5 -24 7 -29 4 -6 -4 -7 1 -3 11 4 12
3 15 -5 10 -7 -4 -12 -2 -12 6 0 9 -3 9 -10 -2 -7 -11 -10 -12 -10 -2 0 8 -6
12 -12 9 -7 -2 -19 3 -26 12 -8 10 -11 10 -6 2 5 -10 3 -12 -7 -5 -8 5 -17 9
-21 9 -4 0 -17 8 -28 17 -11 10 -25 18 -31 18 -6 0 -18 8 -27 18 -10 10 -13
12 -8 5 14 -21 -8 -15 -27 7 -10 12 -21 18 -26 15 -5 -3 -7 4 -4 15 3 12 0 20
-7 20 -7 0 -9 8 -5 19 4 14 -2 21 -25 31 -17 7 -37 22 -45 32 -7 11 -18 17
-24 14 -5 -4 -13 -1 -17 5 -5 8 -2 10 7 5 8 -4 6 -1 -3 7 -10 8 -15 17 -11 21
4 4 0 4 -10 0 -16 -6 -25 10 -9 19 4 2 1 2 -7 0 -9 -2 -11 2 -7 13 5 14 4 15
-9 4 -12 -10 -16 -9 -21 4 -3 9 -11 13 -17 9 -6 -4 -8 2 -4 16 4 18 3 20 -9
10 -11 -9 -14 -9 -14 0 0 7 -5 9 -12 5 -7 -5 -9 -2 -5 9 3 9 0 18 -9 21 -9 3
-12 10 -9 16 4 6 -1 7 -10 3 -20 -7 -40 18 -22 29 7 4 3 6 -10 5 -12 0 -19 -5
-17 -9 3 -4 -2 -5 -10 -2 -9 3 -16 11 -16 18 0 7 -3 6 -9 -2 -6 -11 -11 -10
-25 3 -9 9 -13 22 -9 28 4 7 -1 6 -10 -2 -15 -12 -17 -12 -11 4 6 14 4 16 -7
10 -12 -7 -12 -6 -1 7 11 14 9 20 -17 39 -25 19 -28 25 -18 38 10 12 9 14 -6
8 -15 -6 -16 -4 -6 14 6 12 7 19 1 15 -5 -3 -18 4 -28 17 -16 18 -16 19 -1 8
12 -9 17 -10 17 -2 0 6 -6 14 -14 17 -8 3 -16 19 -20 35 -3 17 -10 28 -15 25
-5 -4 -8 2 -6 11 1 10 -2 24 -8 31 -6 8 -6 12 2 12 9 0 9 5 1 20 -10 19 -14
39 -23 128 -2 17 -7 35 -12 40 -5 4 -5 1 0 -7 6 -10 4 -12 -4 -7 -7 5 -8 13
-4 19 10 15 10 38 0 55 -5 6 -4 12 2 12 6 0 8 6 5 14 -3 7 1 30 10 49 11 27
11 37 3 41 -7 2 -4 5 6 5 15 1 16 4 7 22 -11 19 -10 20 10 9 15 -8 20 -8 16
-1 -4 6 -2 11 4 11 6 0 8 5 4 11 -4 8 0 8 15 0 18 -10 20 -9 14 5 -4 12 -3 15
5 10 7 -4 12 -1 12 8 0 9 5 16 11 16 5 0 8 -4 4 -9 -3 -5 0 -13 6 -17 7 -4 9
-3 6 3 -6 9 12 29 42 48 10 5 12 4 7 -3 -4 -7 -3 -12 3 -12 5 0 11 5 13 11 2
6 19 13 38 14 19 2 37 4 39 4 2 1 -2 8 -9 16 -8 10 -9 15 -2 15 6 0 9 7 5 16
-5 14 -1 16 20 12 15 -3 24 -1 21 4 -3 4 2 11 11 14 13 5 13 9 3 22 -9 11 -9
13 -1 9 6 -4 15 -2 18 4 4 5 14 8 22 5 8 -3 11 -1 8 4 -3 6 -1 10 5 10 6 0 9
4 5 9 -3 5 4 13 15 16 17 5 19 9 9 21 -7 9 -8 14 -3 12 13 -4 64 51 64 68 0 7
12 22 26 33 15 12 23 21 18 22 -5 0 2 5 15 10 17 7 22 15 18 29 -3 11 -1 18 4
14 5 -3 9 0 9 6 0 6 5 8 13 4 8 -6 8 -3 -1 9 -12 14 -11 16 7 12 19 -3 20 -1
10 17 -7 14 -7 18 0 14 11 -7 44 48 34 58 -4 3 -1 6 6 6 7 0 9 5 5 12 -5 8 -2
9 11 4 16 -6 16 -4 4 11 -8 10 -9 14 -2 10 7 -5 17 1 23 14 8 15 8 19 1 15 -7
-5 -9 -1 -5 8 3 9 11 16 17 16 6 0 7 3 4 7 -4 3 1 12 11 20 9 8 11 12 5 8 -9
-4 -11 -1 -7 9 3 9 11 13 17 9 6 -4 7 -1 3 6 -5 7 0 19 10 27 11 9 12 12 4 8
-12 -7 -13 -5 -3 8 7 8 9 18 5 22 -4 4 -2 7 3 6 21 -5 27 1 16 14 -9 11 -8 14
6 12 11 0 18 7 20 19 5 59 8 73 13 70 3 -2 13 3 23 10 17 12 17 13 0 19 -16 7
-16 8 -2 16 11 7 15 20 13 40 -3 22 0 29 8 24 8 -5 9 -2 5 9 -4 10 -2 17 4 17
6 0 8 7 5 16 -3 8 -2 12 4 9 6 -3 10 -1 10 4 0 6 -6 11 -12 11 -7 0 -5 5 6 11
15 9 16 13 5 20 -11 7 -10 9 3 9 11 0 15 5 12 15 -3 8 0 17 7 20 8 3 15 18 17
33 5 58 7 67 21 78 10 8 11 13 3 18 -8 5 -9 13 -2 26 6 11 14 28 19 38 4 9 4
27 0 40 -5 12 -5 22 -1 22 4 0 7 21 7 47 0 33 4 48 15 50 13 4 13 3 0 -7 -13
-10 -13 -11 0 -7 8 2 16 10 16 18 3 32 5 33 14 19 8 -13 10 -13 10 2 0 11 5
15 14 12 8 -3 17 0 21 5 3 6 10 9 15 6 4 -3 14 3 21 12 12 14 12 16 0 8 -10
-5 -12 -4 -7 4 6 9 11 9 22 0 12 -10 13 -9 8 4 -4 12 0 14 18 10 18 -4 20 -3
8 6 -13 9 -13 11 2 11 11 0 15 5 12 15 -4 9 0 15 9 15 9 0 19 5 23 12 4 7 3 8
-4 4 -8 -4 -10 -2 -6 8 3 8 14 13 25 11 16 -3 17 -1 9 16 -9 15 -7 19 6 19 10
0 14 5 10 15 -3 10 1 15 12 15 10 0 13 3 6 8 -7 5 -7 14 1 29 7 13 16 20 21
15 4 -4 3 0 -4 10 -10 12 -10 18 -1 24 8 4 9 3 5 -4 -4 -7 -2 -12 3 -12 6 0
11 12 11 26 0 17 4 23 13 18 7 -5 6 0 -3 11 -14 17 -13 18 2 12 15 -5 16 -2 8
18 -6 16 -6 25 0 25 5 0 6 7 3 17 -4 11 -3 14 5 9 8 -5 10 4 8 29 -1 19 1 35
6 35 5 0 4 9 -2 20 -6 11 -7 20 -2 20 4 0 5 27 2 60 -3 33 -2 60 2 60 5 0 4 9
-2 20 -6 11 -7 20 -2 20 5 0 6 21 2 48 -5 26 -6 50 -4 54 3 4 -4 13 -16 20
-11 7 -20 16 -20 21 0 4 6 5 13 1 8 -5 8 -3 -2 9 -7 9 -11 25 -9 35 3 11 -3
30 -14 43 -11 13 -16 18 -12 10 5 -10 3 -12 -5 -7 -9 6 -9 11 1 24 11 13 11
14 0 8 -9 -5 -15 -1 -19 13 -3 12 -9 21 -14 21 -5 0 -9 7 -9 15 0 8 -6 15 -13
15 -7 0 -18 9 -25 21 -7 11 -18 19 -25 16 -7 -2 -18 3 -25 12 -8 10 -11 10 -6
2 5 -10 3 -12 -5 -7 -7 5 -9 15 -5 25 4 9 8 49 10 90 2 40 5 76 8 79 3 3 1 11
-5 19 -9 10 -8 13 1 13 9 0 9 4 2 13 -7 8 -7 18 -2 27 5 9 5 19 -2 27 -7 9 -7
13 1 13 9 0 9 5 1 20 -8 14 -8 20 0 20 8 0 8 6 0 20 -8 15 -8 20 1 20 8 0 8 4
1 13 -7 8 -7 18 -2 27 5 9 5 19 -2 27 -6 7 -6 13 -1 13 5 0 9 9 9 20 0 11 -3
20 -7 20 -4 0 -10 7 -13 16 -4 9 -2 13 5 8 6 -3 4 5 -6 19 -9 14 -12 28 -7 31
10 6 9 36 -2 54 -4 7 -2 12 5 12 7 0 8 4 2 13 -11 14 -11 27 0 45 5 7 4 12 -2
12 -6 0 -11 14 -11 30 0 17 -3 30 -7 30 -5 0 -8 15 -9 33 -1 52 -9 107 -14
107 -3 0 -6 17 -8 37 -1 20 -6 39 -10 43 -4 3 -8 24 -9 47 -1 23 -9 56 -18 72
-14 28 -14 30 2 25 17 -5 17 -5 0 6 -9 6 -15 15 -12 21 4 5 1 9 -5 9 -6 0 -8
5 -5 10 3 6 2 10 -4 10 -6 0 -8 6 -5 14 3 8 0 17 -6 21 -8 5 -8 11 1 21 9 11
8 15 -5 20 -9 3 -13 10 -10 15 3 5 0 9 -5 9 -6 0 -11 9 -11 20 0 12 -7 32 -16
46 -16 23 -16 24 2 18 12 -3 10 0 -5 9 -18 11 -20 16 -10 20 10 4 10 6 2 6 -7
1 -13 6 -13 12 0 7 -8 18 -17 26 -12 10 -13 12 -3 8 9 -4 8 -1 -3 8 -14 11
-15 16 -5 20 8 4 7 6 -4 6 -10 1 -18 6 -18 12 0 5 6 7 13 3 6 -5 4 3 -5 16
-33 46 -67 118 -60 125 4 5 2 5 -4 2 -7 -4 -14 2 -17 14 -4 13 -10 18 -18 13
-8 -5 -10 -3 -4 5 4 8 -1 18 -14 27 -12 9 -19 19 -16 24 3 5 1 11 -5 15 -6 4
-7 11 -4 17 4 7 2 8 -4 4 -11 -6 -17 13 -13 37 1 5 -3 6 -9 2 -6 -3 -7 -11 -4
-17 4 -7 2 -8 -5 -4 -6 4 -9 12 -6 17 4 5 1 9 -5 9 -6 0 -9 4 -6 8 2 4 -5 14
-17 22 -21 12 -21 12 -7 -6 14 -19 14 -19 -8 0 -23 20 -30 32 -10 20 8 -5 9
-2 5 10 -4 10 -7 20 -7 22 0 3 -4 2 -10 -1 -5 -3 -10 1 -10 10 0 10 -5 13 -12
9 -8 -5 -9 -2 -5 9 4 11 1 17 -8 17 -8 0 -15 5 -15 11 0 5 -5 7 -12 3 -8 -5
-9 -2 -5 10 4 9 3 14 -2 11 -5 -3 -12 -1 -16 5 -4 6 -12 7 -18 3 -7 -4 -5 2 3
12 9 11 10 16 3 11 -7 -4 -13 -2 -13 3 0 6 -3 10 -7 10 -22 -4 -33 2 -27 13 5
8 2 9 -10 5 -9 -4 -15 -3 -12 2 8 12 -19 33 -29 23 -5 -4 -5 1 -2 10 4 12 2
15 -9 11 -7 -3 -14 0 -14 6 0 6 -7 11 -15 11 -8 0 -15 5 -15 10 0 6 -4 10 -10
10 -5 0 -19 9 -30 20 -21 21 -46 28 -34 8 4 -7 3 -8 -4 -4 -6 4 -8 14 -5 23 4
11 3 14 -5 9 -7 -4 -12 -3 -12 3 0 6 -7 7 -17 4 -11 -4 -14 -3 -9 5 4 7 1 12
-9 12 -8 0 -18 7 -21 15 -4 8 -10 12 -15 9 -5 -3 -9 1 -9 8 0 9 -3 9 -10 -2
-6 -10 -10 -11 -10 -2 0 6 -6 12 -14 12 -8 0 -16 7 -20 15 -3 8 -10 15 -16 15
-6 0 -8 -6 -5 -12 4 -7 1 -6 -7 3 -7 9 -19 14 -25 12 -7 -3 -13 0 -13 7 0 6
-4 9 -9 6 -5 -3 -14 1 -21 9 -7 8 -17 15 -23 15 -6 0 -2 -7 9 -15 18 -14 17
-14 -8 -4 -16 7 -28 16 -28 21 0 5 -4 6 -10 3 -5 -3 -10 0 -10 7 0 9 -3 9 -10
-2 -7 -12 -10 -12 -10 -1 0 7 -6 11 -15 7 -8 -3 -15 -2 -15 2 0 13 -46 29 -66
22 -21 -8 -56 9 -47 23 3 5 -4 4 -16 -2 -11 -7 -21 -8 -21 -3 0 5 -6 9 -12 10
-7 1 -26 4 -43 7 -16 3 -38 7 -48 8 -10 1 -23 9 -28 17 -9 13 -10 12 -5 -3 5
-16 3 -16 -24 -2 -20 11 -30 12 -30 4 0 -8 -4 -8 -13 0 -10 8 -17 7 -27 -2
-10 -10 -11 -9 -5 2 6 11 3 13 -13 9 -12 -4 -20 -2 -16 3 3 5 -1 9 -8 9 -169
5 -258 3 -258 -3 0 -4 -9 -3 -20 3 -11 6 -20 7 -20 2 0 -4 -27 -5 -60 -2 -33
3 -60 2 -60 -2 0 -5 -9 -4 -20 2 -11 6 -20 7 -20 2 0 -5 -18 -6 -40 -2 -22 4
-40 3 -40 -2 0 -5 -9 -4 -20 2 -11 6 -20 7 -20 2 0 -5 -18 -6 -40 -2 -32 6
-40 4 -40 -8z m-703 -217 c0 -8 -4 -12 -9 -9 -5 3 -6 10 -3 15 9 13 12 11 12
-6z m-357 -275 c0 -5 -5 -10 -11 -10 -5 0 -7 5 -4 10 3 6 8 10 11 10 2 0 4 -4
4 -10z m-20 -23 c0 -2 -12 -14 -27 -28 -20 -18 -24 -19 -13 -4 18 24 40 42 40
32z m-280 -407 c0 -5 -5 -10 -11 -10 -5 0 -7 5 -4 10 3 6 8 10 11 10 2 0 4 -4
4 -10z m3256 -1485 c-11 -8 -25 -15 -30 -15 -6 1 0 7 14 15 32 19 40 18 16 0z
m70 -13 c-4 -3 -14 2 -24 12 -16 18 -16 18 6 6 13 -6 21 -14 18 -18z m-3128
-22 c9 -16 8 -16 -14 -6 -26 12 -31 23 -10 23 7 0 18 -8 24 -17z m3036 1 c4
-5 -3 -7 -14 -4 -23 6 -26 13 -6 13 8 0 17 -4 20 -9z m454 -16 c-3 -3 -9 2
-12 12 -6 14 -5 15 5 6 7 -7 10 -15 7 -18z m-340 -40 c-3 -3 -9 2 -12 12 -6
14 -5 15 5 6 7 -7 10 -15 7 -18z m-3282 -13 c-17 -16 -18 -16 -5 5 7 12 15 20
18 17 3 -2 -3 -12 -13 -22z m3295 -19 c13 -16 12 -17 -3 -4 -10 7 -18 15 -18
17 0 8 8 3 21 -13z m-3303 -33 c-7 -10 -14 -17 -17 -15 -4 4 18 35 25 35 2 0
-1 -9 -8 -20z m3315 -15 c4 -8 3 -16 -1 -19 -4 -3 -9 4 -9 15 -2 23 3 25 10 4z
m-3598 -55 c2 -12 1 -20 -2 -16 -4 4 -8 16 -10 28 -4 28 6 18 12 -12z m3855
20 c0 -5 -5 -10 -11 -10 -5 0 -7 5 -4 10 3 6 8 10 11 10 2 0 4 -4 4 -10z
m-3593 -40 c-2 -11 -6 -22 -9 -26 -4 -3 -5 2 -3 13 2 10 4 21 4 26 1 4 3 7 6
7 3 0 4 -9 2 -20z m3367 -36 c3 -8 2 -12 -4 -9 -6 3 -10 10 -10 16 0 14 7 11
14 -7z m-3384 -38 c0 -2 -7 -9 -15 -16 -13 -11 -14 -10 -9 4 5 14 24 23 24 12z
m-230 -51 c0 -8 -2 -15 -4 -15 -2 0 -6 7 -10 15 -3 8 -1 15 4 15 6 0 10 -7 10
-15z m215 5 c3 -5 2 -10 -4 -10 -5 0 -13 5 -16 10 -3 6 -2 10 4 10 5 0 13 -4
16 -10z m-255 -605 c11 -13 10 -14 -4 -9 -9 3 -16 10 -16 15 0 13 6 11 20 -6z
m325 -703 c-3 -3 -11 0 -18 7 -9 10 -8 11 6 5 10 -3 15 -9 12 -12z m506 -799
c13 -16 12 -17 -3 -4 -17 13 -22 21 -14 21 2 0 10 -8 17 -17z m2114 -793 c3
-5 1 -10 -4 -10 -6 0 -11 5 -11 10 0 6 2 10 4 10 3 0 8 -4 11 -10z m410 -340
c3 -6 -1 -7 -9 -4 -18 7 -21 14 -7 14 6 0 13 -4 16 -10z m-4648 -881 c-9 -6
-14 -15 -11 -21 4 -7 2 -8 -5 -4 -14 9 3 36 23 36 6 0 3 -5 -7 -11z m53 -1055
c0 -8 -19 -13 -24 -6 -3 5 1 9 9 9 8 0 15 -2 15 -3z"/>
<path d="M7116 8702 c-3 -5 1 -9 9 -9 8 0 12 4 9 9 -3 4 -7 8 -9 8 -2 0 -6 -4
-9 -8z"/>
<path d="M6245 8200 c3 -5 8 -10 11 -10 2 0 4 5 4 10 0 6 -5 10 -11 10 -5 0
-7 -4 -4 -10z"/>
<path d="M7353 4767 c-1 -12 -10 -27 -19 -34 -10 -7 -15 -13 -11 -13 4 0 3
-11 -2 -23 -5 -13 -6 -30 -1 -37 5 -7 4 -24 -1 -37 -5 -12 -5 -23 0 -23 4 0 5
-20 1 -45 -4 -25 -4 -48 1 -50 6 -4 5 -40 -1 -40 -6 0 -5 -47 1 -51 4 -2 5
-14 3 -27 -3 -12 -5 -29 -5 -37 1 -8 1 -24 1 -35 -2 -37 -2 -40 4 -62 2 -13 1
-25 -3 -27 -7 -4 -7 -46 -1 -53 6 -8 5 -30 -1 -44 -4 -8 -4 -21 1 -28 4 -8 4
-27 0 -42 -5 -16 -5 -31 0 -34 7 -4 7 -33 0 -42 -3 -4 -3 -42 0 -45 5 -8 6
-46 0 -43 -4 2 -13 -18 -20 -45 -13 -46 -20 -55 -43 -51 -5 1 -6 -3 -2 -9 3
-6 11 -7 17 -4 6 4 5 -2 -2 -15 -6 -13 -16 -19 -23 -14 -7 4 -5 -2 3 -12 9
-11 10 -16 3 -11 -8 4 -13 2 -13 -4 0 -6 -5 -8 -12 -4 -8 5 -9 2 -5 -9 3 -10
2 -17 -3 -17 -6 0 -9 -3 -9 -7 4 -23 -3 -31 -22 -28 -17 3 -19 1 -9 -10 8 -10
8 -15 -1 -21 -8 -5 -10 -3 -5 7 4 8 1 6 -7 -3 -8 -10 -17 -15 -20 -11 -4 3 -7
0 -7 -7 0 -7 -3 -10 -7 -7 -3 4 -12 -1 -20 -11 -8 -9 -11 -11 -7 -3 5 9 3 12
-4 7 -7 -4 -12 -15 -12 -24 0 -15 -2 -15 -10 -2 -8 13 -10 13 -10 -2 0 -11 -5
-15 -15 -12 -9 4 -15 0 -15 -7 0 -11 -2 -11 -10 1 -8 12 -10 12 -15 -2 -4 -10
-13 -14 -22 -11 -9 4 -21 0 -27 -8 -15 -21 -40 -29 -56 -19 -8 5 -22 4 -31 -1
-12 -6 -20 -5 -24 1 -5 8 -11 7 -21 -1 -11 -9 -14 -9 -14 1 0 10 -3 10 -14 1
-10 -9 -16 -9 -21 -1 -5 8 -10 8 -20 0 -9 -8 -15 -8 -20 0 -4 7 -12 7 -25 0
-13 -7 -21 -7 -25 0 -5 8 -11 7 -21 -1 -11 -9 -14 -9 -14 1 0 10 -3 10 -14 1
-10 -9 -16 -9 -21 -1 -5 8 -10 8 -20 0 -9 -8 -15 -8 -20 0 -4 7 -12 7 -25 0
-13 -7 -21 -7 -25 0 -5 8 -11 7 -21 -1 -11 -9 -14 -9 -14 1 0 10 -3 10 -14 1
-10 -9 -16 -9 -21 -1 -5 8 -10 8 -20 0 -9 -8 -15 -8 -20 0 -4 7 -12 7 -25 0
-13 -7 -21 -7 -25 0 -5 8 -11 8 -20 0 -10 -8 -15 -8 -20 0 -5 8 -11 8 -21 -1
-11 -9 -14 -9 -14 1 0 9 -3 10 -13 1 -8 -6 -17 -8 -21 -4 -10 10 -46 11 -46 1
0 -5 -9 -4 -20 2 -11 6 -20 7 -20 2 0 -10 -43 -8 -61 4 -8 5 -9 3 -4 -6 6 -10
4 -12 -11 -6 -10 4 -15 4 -11 0 4 -4 1 -14 -6 -22 -10 -13 -9 -15 3 -8 12 6
12 5 -1 -6 -13 -11 -13 -19 -3 -58 7 -25 13 -40 13 -35 1 6 6 2 12 -7 5 -10
16 -15 24 -12 8 4 15 1 15 -6 0 -9 4 -9 13 -2 6 5 21 6 32 2 11 -4 30 -4 42 1
13 5 25 4 29 -2 4 -7 10 -6 19 1 10 8 15 8 20 0 5 -8 11 -8 21 1 11 9 14 9 14
-1 0 -10 3 -10 14 -1 8 7 17 8 20 3 6 -10 36 -9 53 1 6 4 15 3 18 -3 4 -7 12
-7 18 -2 14 10 27 10 44 -1 6 -4 15 -3 18 3 5 8 11 7 21 -1 11 -9 14 -9 14 1
0 10 3 10 14 1 10 -9 16 -9 21 -1 4 6 12 7 18 3 15 -10 38 -10 54 0 6 4 15 3
18 -3 5 -8 11 -8 20 0 10 8 15 8 20 0 5 -8 10 -8 20 0 10 8 15 8 20 0 4 -6 12
-7 18 -2 14 10 27 10 44 -1 6 -4 15 -3 18 3 5 8 11 7 21 -1 9 -7 14 -8 14 -1
0 6 9 9 21 7 15 -3 18 -1 11 8 -8 9 -4 12 14 12 13 0 24 -4 24 -8 0 -5 5 -5
10 -2 6 4 7 12 3 18 -4 8 -2 8 9 -1 13 -10 17 -10 22 3 3 10 11 13 18 9 7 -5
21 -9 30 -9 14 -1 15 1 6 12 -6 8 -7 13 -2 12 5 -1 22 -1 37 0 20 1 26 5 21
14 -6 9 -5 9 7 0 12 -10 18 -9 29 7 9 13 18 16 26 10 8 -8 10 -3 8 16 -2 20 0
24 9 15 8 -8 16 -5 32 12 11 13 16 18 12 11 -5 -7 -3 -15 4 -20 8 -4 9 -3 5 4
-4 7 -2 12 5 12 6 0 9 8 6 20 -3 11 -2 18 3 15 4 -2 15 4 25 15 10 11 23 17
29 13 6 -4 6 0 -2 9 -10 13 -9 15 13 13 14 -2 23 1 19 6 -3 5 -10 6 -16 3 -6
-4 -8 -2 -4 4 3 6 15 9 26 7 17 -3 19 -1 10 16 -9 15 -7 19 5 19 9 0 13 5 10
10 -5 9 6 14 26 12 3 -1 4 11 1 25 -4 21 -2 25 12 20 14 -5 15 -3 6 13 -8 15
-8 18 3 14 8 -3 17 2 21 11 3 9 2 13 -4 10 -6 -3 -10 -2 -10 4 0 5 5 11 10 13
6 2 13 25 15 51 2 27 9 55 15 62 7 8 9 19 5 25 -3 5 -1 10 4 10 6 0 11 5 11
11 0 5 -5 7 -12 3 -6 -4 -4 3 5 16 12 18 14 27 5 37 -6 8 -7 18 -2 26 11 15
11 38 1 55 -5 7 -3 12 4 12 7 0 8 4 2 13 -8 10 -10 32 -3 40 6 7 6 48 0 52 -4
2 -4 25 0 50 4 25 4 45 0 45 -4 0 -4 20 0 45 4 25 3 48 -2 51 -4 3 -4 14 2 24
6 11 6 21 1 25 -6 3 -6 17 -1 34 4 15 4 34 0 41 -5 7 -4 24 1 38 5 13 6 30 1
36 -8 10 -8 24 -2 44 6 18 5 38 -3 49 -4 6 -3 14 3 18 8 5 4 12 -10 22 -17 12
-19 18 -9 29 10 12 9 13 -6 8 -13 -5 -16 -4 -11 4 5 8 1 10 -10 5 -11 -4 -15
-2 -11 4 8 12 -20 26 -34 17 -6 -3 -15 -1 -22 5 -10 7 -13 4 -14 -12z"/>
<path d="M1940 4769 c0 -5 -4 -8 -9 -5 -5 3 -15 -2 -22 -11 -10 -12 -10 -14
-1 -9 6 4 12 2 12 -3 0 -6 -5 -11 -11 -11 -6 0 -9 -7 -5 -15 3 -8 1 -15 -5
-15 -6 0 -6 -7 1 -20 6 -11 7 -20 2 -20 -5 0 -6 -18 -2 -40 4 -22 3 -40 -2
-40 -5 0 -4 -9 2 -20 6 -11 7 -20 2 -20 -5 0 -6 -18 -2 -40 4 -22 3 -40 -2
-40 -5 0 -4 -9 2 -20 6 -11 7 -20 2 -20 -5 0 -6 -18 -2 -40 4 -22 3 -40 -2
-40 -5 0 -4 -9 2 -20 6 -11 7 -20 2 -20 -5 0 -6 -18 -2 -40 4 -22 3 -40 -2
-40 -5 0 -4 -9 2 -20 6 -11 7 -20 2 -20 -5 0 -6 -18 -2 -40 4 -22 3 -40 -2
-40 -5 0 -4 -9 2 -20 6 -11 7 -20 2 -20 -5 0 -6 -18 -2 -40 4 -22 3 -40 -2
-40 -5 0 -4 -9 2 -20 6 -11 7 -20 2 -20 -5 0 -9 -7 -9 -15 0 -8 5 -15 10 -15
5 0 6 -7 3 -16 -4 -9 -1 -24 6 -32 11 -13 11 -14 -2 -7 -9 5 -8 0 4 -13 13
-15 15 -22 6 -22 -10 0 -9 -5 3 -18 19 -20 23 -37 7 -27 -6 3 -7 -1 -4 -9 3
-9 10 -16 16 -16 5 0 6 -4 3 -10 -3 -5 -1 -10 5 -10 8 0 7 -6 -1 -21 -8 -15
-8 -19 0 -15 10 7 42 -16 41 -29 -1 -25 2 -35 11 -35 5 0 7 4 4 10 -3 6 1 7
10 3 12 -4 13 -8 5 -13 -7 -4 -9 -13 -6 -19 4 -6 12 -9 17 -6 5 3 6 -2 2 -11
-4 -12 -3 -15 5 -10 7 4 12 2 12 -4 0 -6 5 -8 12 -4 8 5 9 2 5 -9 -6 -17 2
-21 33 -17 11 1 10 -2 -4 -13 -15 -11 -16 -16 -6 -22 9 -5 11 -4 6 3 -4 7 -1
12 9 12 11 0 15 -5 11 -16 -5 -12 -1 -14 16 -8 21 6 22 5 8 -11 -9 -11 -10
-16 -2 -11 7 4 12 2 12 -4 0 -6 5 -8 11 -5 6 4 19 -2 30 -14 11 -12 25 -19 30
-15 5 3 8 0 7 -8 -2 -8 5 -12 20 -10 12 2 22 -1 22 -6 0 -5 6 -9 13 -10 24 -1
56 -11 79 -23 22 -12 22 -11 8 7 -14 18 -14 18 6 1 12 -10 25 -17 30 -16 5 1
11 0 14 -1 6 -2 26 -6 62 -13 15 -3 32 -8 38 -12 5 -3 10 -2 10 3 0 10 30 9
47 -1 6 -4 15 -3 18 3 4 6 12 7 18 3 15 -10 38 -10 54 0 6 4 14 3 18 -3 4 -6
12 -7 18 -3 19 12 36 12 43 2 4 -6 11 -6 19 1 10 8 15 8 20 0 5 -8 11 -8 21 1
11 9 14 9 14 -1 0 -10 3 -10 14 -1 10 8 16 9 21 1 4 -7 12 -7 25 0 13 7 21 7
25 0 5 -8 11 -7 21 1 11 9 14 9 14 -1 0 -10 3 -10 14 -1 10 9 16 9 21 1 5 -8
10 -8 20 0 9 8 15 8 20 0 4 -7 12 -7 25 0 13 7 21 7 25 0 5 -8 11 -7 21 1 11
9 14 9 14 -1 0 -10 3 -10 14 -1 10 9 16 9 21 1 5 -8 11 -8 19 -1 7 6 16 8 20
4 13 -14 46 -10 46 6 0 14 2 14 10 1 7 -11 10 -11 10 -2 0 7 4 11 9 8 5 -3 15
2 22 11 10 12 10 14 2 9 -19 -11 -16 5 3 19 21 15 27 65 8 72 -8 3 -11 9 -8
14 3 5 2 9 -3 8 -22 -4 -34 2 -27 14 6 9 4 9 -8 -1 -10 -8 -19 -9 -22 -3 -7
10 -24 10 -43 -2 -6 -4 -15 -3 -18 3 -4 7 -12 7 -18 2 -14 -10 -27 -10 -44 1
-6 4 -15 3 -18 -3 -5 -8 -11 -7 -21 1 -11 9 -14 9 -14 -1 0 -10 -3 -10 -14 -1
-10 9 -16 9 -21 1 -4 -6 -12 -7 -18 -3 -15 10 -38 10 -54 0 -6 -4 -14 -3 -18
3 -4 6 -12 7 -18 3 -19 -12 -36 -12 -43 -2 -4 6 -11 6 -19 -1 -10 -8 -15 -8
-20 0 -5 8 -11 8 -21 -1 -11 -9 -14 -9 -14 1 0 10 -3 10 -14 1 -8 -7 -17 -8
-20 -3 -6 10 -36 9 -53 -1 -6 -4 -15 -3 -18 3 -4 7 -12 7 -18 2 -14 -10 -27
-10 -44 1 -6 4 -15 3 -18 -3 -5 -8 -11 -7 -21 1 -11 9 -14 9 -14 -1 0 -10 -3
-10 -14 -1 -10 9 -16 9 -21 1 -4 -6 -12 -7 -18 -3 -15 10 -38 10 -54 0 -8 -5
-13 -3 -13 4 0 7 -3 9 -7 6 -3 -4 -13 -1 -21 6 -9 6 -13 7 -9 1 3 -6 0 -11 -8
-11 -8 0 -13 5 -12 11 1 6 -9 12 -23 14 -14 2 -29 10 -33 18 -6 11 -13 12 -27
4 -16 -9 -18 -8 -13 6 4 11 3 15 -5 10 -6 -3 -13 -2 -17 4 -4 6 -11 8 -16 5
-5 -3 -6 2 -2 11 4 12 3 15 -5 10 -15 -9 -60 21 -68 46 -3 11 -12 17 -19 14
-9 -3 -12 2 -10 15 3 16 0 19 -12 15 -12 -5 -13 -4 -5 7 12 14 6 27 -12 27 -6
0 -4 -5 4 -11 12 -8 12 -10 1 -7 -8 2 -15 12 -17 23 -1 10 -9 22 -16 26 -9 6
-10 9 -1 9 7 0 10 7 7 15 -4 8 -10 12 -15 9 -5 -3 -9 -2 -8 3 6 33 -3 63 -18
63 -14 0 -15 2 -5 9 11 6 10 10 -3 15 -14 5 -15 9 -6 20 7 9 8 17 2 20 -7 5
-8 41 -1 41 6 0 5 47 0 50 -4 2 -4 25 0 50 4 25 4 45 0 45 -4 0 -4 20 0 45 4
25 3 48 -2 51 -4 3 -4 14 2 24 6 11 6 21 1 25 -6 3 -6 17 -1 34 4 15 4 34 0
41 -5 7 -4 24 1 38 5 13 6 30 1 36 -7 10 -9 31 -2 39 6 7 6 48 0 52 -4 2 -4
25 0 50 4 25 4 45 0 45 -4 0 -4 18 0 39 4 22 4 45 -1 52 -4 7 -6 16 -3 20 2 4
-3 22 -11 40 -10 23 -14 28 -15 15 0 -19 0 -19 -14 -1 -12 17 -16 18 -32 5
-11 -9 -15 -10 -10 -2 4 6 2 12 -3 12 -6 0 -11 -5 -11 -11z m230 -1119 c0 -5
-2 -10 -4 -10 -3 0 -8 5 -11 10 -3 6 -1 10 4 10 6 0 11 -4 11 -10z"/>
<path d="M6010 4238 c-12 -22 -12 -22 6 -6 10 10 15 20 12 24 -4 3 -12 -5 -18
-18z"/>
<path d="M7269 3533 c-13 -16 -12 -17 4 -4 16 13 21 21 13 21 -2 0 -10 -8 -17
-17z"/>
<path d="M6036 2928 c3 -5 10 -6 15 -3 13 9 11 12 -6 12 -8 0 -12 -4 -9 -9z"/>
</g>
</svg>
